<svg xmlns="http://www.w3.org/2000/svg" xmlns:xlink="http://www.w3.org/1999/xlink" width="411.208" height="438.478" viewBox="0 0 411.208 438.478"><defs><filter id="a"><feOffset input="SourceAlpha"/><feGaussianBlur stdDeviation="7.5" result="b"/><feFlood flood-color="#ff5722" result="c"/><feComposite operator="out" in="SourceGraphic" in2="b"/><feComposite operator="in" in="c"/><feComposite operator="in" in2="SourceGraphic"/></filter></defs><g transform="translate(-41 -31)"><path d="M886.587,260.778h0L859.434,276.07a1.257,1.257,0,0,1-1.873-1.1v-9.835a1.257,1.257,0,0,1,.653-1.1l16.846-9.225a1.2,1.2,0,0,1,1.173.013l10.354,5.952s0,0,0,0Zm.1-2.869a1.256,1.256,0,0,0,1.883-1.089V226.97a1.256,1.256,0,0,0-1.882-1.089l-8.109,4.661a1.254,1.254,0,0,0-.631,1.089v20.52a1.254,1.254,0,0,0,.629,1.088ZM827.9,259.677a1.256,1.256,0,0,0,.009,2.183L853.14,276.07a1.257,1.257,0,0,0,1.873-1.1v-9.835a1.257,1.257,0,0,0-.653-1.1l-16.819-9.208a1.252,1.252,0,0,0-1.229.013Zm-2.015-1.769A1.256,1.256,0,0,1,824,256.819V226.97a1.256,1.256,0,0,1,1.882-1.089l8.109,4.661a1.254,1.254,0,0,1,.631,1.089v20.52a1.254,1.254,0,0,1-.629,1.088Zm-.641-35.318s0,0,0,0l27.9-15.712a1.256,1.256,0,0,1,1.873,1.094v9.417a1.257,1.257,0,0,1-.653,1.1l-18.422,10.079h0a.291.291,0,0,1-.292,0l-10.4-5.983s0,0,0,0Zm62.087,0s0,0,0,0l-27.894-15.718a1.256,1.256,0,0,0-1.873,1.094v9.418a1.256,1.256,0,0,0,.653,1.1l18.418,10.086h0a.291.291,0,0,0,.291,0l10.4-5.983s0,0,0,0ZM855.005,261.5s0,0,0,0l-17.188-9.406a1.257,1.257,0,0,1-.653-1.1V234.547a1.256,1.256,0,0,1,1.882-1.089l15.326,8.813A1.254,1.254,0,0,1,855,243.36v18.134a0,0,0,0,0,0,0Zm2.555-2.121a1.257,1.257,0,0,0,1.859,1.1l15.326-8.392a1.257,1.257,0,0,0,.653-1.1V234.547a1.256,1.256,0,0,0-1.882-1.089l-15.326,8.813a1.254,1.254,0,0,0-.631,1.089Zm-17.242-28.125a1.256,1.256,0,0,1,.024-2.191l15.345-8.4a1.254,1.254,0,0,1,1.206,0l15.345,8.4a1.256,1.256,0,0,1,.024,2.191l-15.345,8.825a1.255,1.255,0,0,1-1.254,0Z" transform="translate(-609.682 8.767)" fill="#ff4910"/><g data-type="innerShadowGroup"><path d="M398.562,342.986s0,0,0,0L230.115,437.851a11,11,0,0,1-16.4-9.584V372.524a11,11,0,0,1,5.716-9.648l104.04-56.98a11,11,0,0,1,10.766.112l64.323,36.978ZM394.723,322.1a11,11,0,0,0,16.485-9.535V132.88a11,11,0,0,0-16.48-9.537L349.084,149.57a11,11,0,0,0-5.52,9.538v127.2a11,11,0,0,0,5.515,9.535ZM12.646,342.986s0,0,0,0l168.447,94.864a11,11,0,0,0,16.4-9.584V372.524a11,11,0,0,0-5.716-9.648L87.735,305.9a11,11,0,0,0-10.766.112L12.646,342.986ZM16.485,322.1A11,11,0,0,1,0,312.568V132.881a11,11,0,0,1,16.48-9.538L62.123,149.57a11,11,0,0,1,5.519,9.538v127.2a11,11,0,0,1-5.515,9.535ZM7.915,99.786h0L181.092,2.237a11,11,0,0,1,16.4,9.584V64.882a11,11,0,0,1-5.717,9.648L76.04,137.9h0a1.858,1.858,0,0,1-1.851,0L7.915,99.788a0,0,0,0,1,0,0Zm395.38,0a.009.009,0,0,0,0-.007L230.116,2.237a11,11,0,0,0-16.4,9.584V64.882a11,11,0,0,0,5.716,9.648l115.735,63.38h0a1.857,1.857,0,0,0,1.85,0l66.274-38.114,0,0Z" transform="translate(41 30.195)" fill="#ff9800"/><g transform="matrix(1, 0, 0, 1, 41, 31)" filter="url(#a)"><path d="M398.562,342.986s0,0,0,0L230.115,437.851a11,11,0,0,1-16.4-9.584V372.524a11,11,0,0,1,5.716-9.648l104.04-56.98a11,11,0,0,1,10.766.112l64.323,36.978ZM394.723,322.1a11,11,0,0,0,16.485-9.535V132.88a11,11,0,0,0-16.48-9.537L349.084,149.57a11,11,0,0,0-5.52,9.538v127.2a11,11,0,0,0,5.515,9.535ZM12.646,342.986s0,0,0,0l168.447,94.864a11,11,0,0,0,16.4-9.584V372.524a11,11,0,0,0-5.716-9.648L87.735,305.9a11,11,0,0,0-10.766.112L12.646,342.986ZM16.485,322.1A11,11,0,0,1,0,312.568V132.881a11,11,0,0,1,16.48-9.538L62.123,149.57a11,11,0,0,1,5.519,9.538v127.2a11,11,0,0,1-5.515,9.535ZM7.915,99.786h0L181.092,2.237a11,11,0,0,1,16.4,9.584V64.882a11,11,0,0,1-5.717,9.648L76.04,137.9h0a1.858,1.858,0,0,1-1.851,0L7.915,99.788a0,0,0,0,1,0,0Zm395.38,0a.009.009,0,0,0,0-.007L230.116,2.237a11,11,0,0,0-16.4,9.584V64.882a11,11,0,0,0,5.716,9.648l115.735,63.38h0a1.857,1.857,0,0,0,1.85,0l66.274-38.114,0,0Z" transform="translate(0 -0.81)" fill="#fff"/></g></g><path d="M237.264,204.505s0,0,0,0L136.987,260.978a6.548,6.548,0,0,1-9.762-5.705V222.089a6.549,6.549,0,0,1,3.4-5.743l61.935-33.92a6.549,6.549,0,0,1,6.409.067l38.291,22.013Zm-2.285-12.432a6.548,6.548,0,0,0,9.814-5.676V79.429a6.548,6.548,0,0,0-9.811-5.677L207.81,89.365a6.548,6.548,0,0,0-3.286,5.678v75.724a6.548,6.548,0,0,0,3.283,5.676ZM7.528,204.505h0L107.8,260.978a6.548,6.548,0,0,0,9.762-5.705V222.089a6.549,6.549,0,0,0-3.4-5.743l-61.935-33.92a6.549,6.549,0,0,0-6.409.067L7.528,204.505Zm2.285-12.432A6.548,6.548,0,0,1,0,186.4V79.43a6.548,6.548,0,0,1,9.811-5.678L36.982,89.365a6.549,6.549,0,0,1,3.286,5.678v75.724a6.549,6.549,0,0,1-3.283,5.676ZM4.712,59.728h0L107.8,1.658a6.548,6.548,0,0,1,9.762,5.705V38.95a6.548,6.548,0,0,1-3.4,5.744l-68.9,37.727h0a1.106,1.106,0,0,1-1.1,0L4.712,59.729a0,0,0,0,1,0,0Zm235.37,0a.005.005,0,0,0,0,0L136.988,1.657a6.548,6.548,0,0,0-9.762,5.705V38.95a6.549,6.549,0,0,0,3.4,5.743l68.9,37.73h0a1.106,1.106,0,0,0,1.1,0L240.08,59.733l0,0Z" transform="translate(124.208 118.921)" fill="#ff9800"/><path d="M134.093,115.929s0,0,0,0L77.42,147.846a3.7,3.7,0,0,1-5.517-3.224V125.867a3.7,3.7,0,0,1,1.923-3.246l35-19.17a3.7,3.7,0,0,1,3.622.038l21.641,12.441ZM132.8,108.9a3.7,3.7,0,0,0,5.546-3.208V45.241a3.7,3.7,0,0,0-5.545-3.209l-15.357,8.824a3.7,3.7,0,0,0-1.857,3.209v42.8a3.7,3.7,0,0,0,1.855,3.208ZM4.255,115.929h0l56.673,31.916a3.7,3.7,0,0,0,5.517-3.224V125.867a3.7,3.7,0,0,0-1.923-3.246l-35-19.17a3.7,3.7,0,0,0-3.622.038L4.255,115.929ZM5.546,108.9A3.7,3.7,0,0,1,0,105.7V45.241a3.7,3.7,0,0,1,5.545-3.209L20.9,50.856a3.7,3.7,0,0,1,1.857,3.209v42.8A3.7,3.7,0,0,1,20.9,100.07Zm-2.883-74.8h0L60.927,1.287a3.7,3.7,0,0,1,5.517,3.225V22.363a3.7,3.7,0,0,1-1.923,3.246L25.583,46.931h0a.625.625,0,0,1-.623,0L2.663,34.107a0,0,0,0,1,0,0Zm133.023,0a0,0,0,0,0,0,0L77.421,1.287A3.7,3.7,0,0,0,71.9,4.511V22.363a3.7,3.7,0,0,0,1.923,3.246l38.938,21.324h0a.625.625,0,0,0,.622,0l22.3-12.823Z" transform="translate(177.43 175.672)" fill="#ff9800"/></g></svg>